<?xml version="1.0" standalone="no"?>
<!DOCTYPE svg PUBLIC "-//W3C//DTD SVG 20010904//EN" "http://www.w3.org/TR/2001/REC-SVG-20010904/DTD/svg10.dtd">
<svg version="1.0" xmlns="http://www.w3.org/2000/svg" width="200.000000pt" height="200.000000pt"
    viewBox="0 0 200.000000 200.000000" preserveAspectRatio="xMidYMid meet">
    <metadata>
        Created by potrace 1.16, written by Peter Selinger 2001-2019
    </metadata>
    <rect x="0" y="0" width="2788" height="2142" fill="#d4d4d4" />
    <g transform="translate(0.000000,200.000000) scale(0.100000,-0.100000)" fill="#000000" stroke="none">
        <path d="M0 1000 l0 -1000 1000 0 1000 0 0 1000 0 1000 -1000 0 -1000 0 0
-1000z m817 839 c15 -5 60 -41 98 -78 101 -98 162 -117 290 -87 33 8 63 12 68
9 5 -3 68 -5 140 -4 147 2 125 -6 304 109 102 65 117 71 126 47 8 -18 -21
-102 -46 -137 -20 -26 -20 -27 2 -54 29 -37 26 -55 -15 -82 -29 -19 -35 -28
-29 -45 16 -54 23 -92 19 -99 -3 -4 0 -54 7 -110 10 -82 19 -115 44 -163 43
-80 48 -122 25 -193 -11 -31 -20 -63 -20 -71 0 -23 -31 -51 -55 -51 -28 0 -43
-18 -40 -48 1 -18 -2 -22 -16 -19 -28 7 -41 -15 -29 -48 12 -31 -4 -55 -70
-113 -35 -29 -40 -39 -40 -75 -1 -65 -43 -213 -87 -302 l-39 -80 -667 -3 -667
-2 0 374 0 374 31 6 c17 3 65 6 105 6 73 0 75 1 119 41 33 30 49 56 65 103 33
101 69 150 133 180 74 35 118 89 151 184 28 82 32 127 17 180 -6 18 -11 79
-12 134 -2 88 0 102 16 114 23 17 35 17 72 3z" />
    </g>
</svg>